<?xml version="1.0" encoding="utf-8"?>
<!-- Generator: Adobe Illustrator 25.2.1, SVG Export Plug-In . SVG Version: 6.00 Build 0)  -->
<svg version="1.1" id="Capa_1" xmlns="http://www.w3.org/2000/svg" xmlns:xlink="http://www.w3.org/1999/xlink" x="0px" y="0px"
	 viewBox="0 0 475.8 475.8" style="enable-background:new 0 0 475.8 475.8;" xml:space="preserve">
<style type="text/css">
	.st0{fill:#FFFFFF;}
</style>
<g>
	<g>
		<path class="st0" d="M81.7,0C47.4,0,19.5,27.9,19.5,62.2s27.9,62.2,62.2,62.2s62.2-27.9,62.2-62.2S115.8,0,81.7,0z M81.7,100.4
			c-21.1,0-38.2-17.1-38.2-38.2S60.5,24,81.7,24s38.2,17.1,38.2,38.2S102.7,100.4,81.7,100.4z"/>
		<path class="st0" d="M111.6,261.6c-4.1,5.2-3.3,12.7,1.9,16.9c2.2,1.8,4.8,2.6,7.5,2.6c3.5,0,7-1.5,9.4-4.5
			c4.1-5.2,3.3-12.7-1.9-16.9C123.2,255.5,115.7,256.4,111.6,261.6z"/>
		<path class="st0" d="M54.5,181.9c-5.9,2.9-8.4,10.1-5.5,16c2.1,4.3,6.3,6.8,10.8,6.8c1.8,0,3.5-0.4,5.3-1.2c6-2.9,8.4-10.1,5.5-16
			C67.7,181.5,60.5,179,54.5,181.9z"/>
		<path class="st0" d="M35.3,215.1c-6.5-1.5-12.9,2.6-14.4,9c-1.5,6.5,2.6,12.9,9,14.4c0.9,0.2,1.8,0.3,2.7,0.3
			c5.5,0,10.4-3.8,11.7-9.3C45.8,223,41.8,216.6,35.3,215.1z"/>
		<path class="st0" d="M35,259.8c-5.2,4.1-6,11.7-1.9,16.9c2.4,3,5.9,4.5,9.4,4.5c2.6,0,5.3-0.9,7.5-2.6c5.2-4.1,6-11.7,1.9-16.9
			C47.7,256.5,40,255.7,35,259.8z"/>
		<path class="st0" d="M130.4,238.6c0.9,0,1.8-0.1,2.7-0.3c6.5-1.5,10.5-7.9,9-14.4s-8-10.5-14.4-9s-10.5,8-9,14.4
			C120.2,234.8,125.1,238.6,130.4,238.6z"/>
		<path class="st0" d="M108.4,181.8c-6-2.9-13.2-0.4-16,5.6c-2.9,6-0.4,13.1,5.6,16l0,0c1.7,0.8,3.4,1.2,5.2,1.2
			c4.5,0,8.8-2.5,10.8-6.8C116.9,191.9,114.4,184.7,108.4,181.8z"/>
		<path class="st0" d="M81.8,276.1L81.8,276.1c-0.1,0-0.1,0-0.2,0c-3.2,0-6.3,1.3-8.5,3.5s-3.5,5.3-3.5,8.5s1.3,6.3,3.5,8.5
			s5.3,3.5,8.5,3.5h0.1h0.1l0,0c6.6,0,12-5.4,12-12C93.8,281.4,88.3,276.1,81.8,276.1z"/>
		<path class="st0" d="M81.7,351.4c-34.3,0-62.2,27.9-62.2,62.2s27.9,62.2,62.2,62.2s62.2-27.9,62.2-62.2S115.8,351.4,81.7,351.4z
			 M81.7,451.8c-21.1,0-38.2-17.1-38.2-38.2s17.1-38.2,38.2-38.2s38.2,17.1,38.2,38.2S102.7,451.8,81.7,451.8z"/>
		<path class="st0" d="M205.4,71h239c6.6,0,12-5.4,12-12s-5.4-12-12-12h-239c-6.6,0-12,5.4-12,12S198.6,71,205.4,71z"/>
		<path class="st0" d="M202.1,249.9c3.2,0,6.3-1.3,8.5-3.5s3.5-5.3,3.5-8.5s-1.3-6.3-3.5-8.5s-5.3-3.5-8.5-3.5s-6.3,1.3-8.5,3.5
			s-3.5,5.3-3.5,8.5s1.3,6.3,3.5,8.5C195.9,248.6,198.9,249.9,202.1,249.9z"/>
		<path class="st0" d="M237.9,237.9c0,6.6,5.4,12,12,12s12-5.4,12-12s-5.4-12-12-12S237.9,231.3,237.9,237.9z"/>
		<path class="st0" d="M285.6,237.9c0,6.6,5.4,12,12,12s12-5.4,12-12s-5.4-12-12-12S285.6,231.3,285.6,237.9z"/>
		<path class="st0" d="M333.5,237.9c0,6.6,5.4,12,12,12s12-5.4,12-12s-5.4-12-12-12S333.5,231.3,333.5,237.9z"/>
		<path class="st0" d="M381.2,237.9c0,6.6,5.4,12,12,12s12-5.4,12-12s-5.4-12-12-12S381.2,231.3,381.2,237.9z"/>
		<path class="st0" d="M441,225.9c-3.2,0-6.3,1.3-8.5,3.5s-3.5,5.3-3.5,8.5s1.3,6.3,3.5,8.5s5.3,3.5,8.5,3.5s6.3-1.3,8.5-3.5
			s3.5-5.3,3.5-8.5s-1.3-6.3-3.5-8.5S444.2,225.9,441,225.9z"/>
		<path class="st0" d="M441,401.6H202c-6.6,0-12,5.4-12,12s5.4,12,12,12h239c6.6,0,12-5.4,12-12S447.6,401.6,441,401.6z"/>
	</g>
</g>
</svg>
